<svg xmlns="http://www.w3.org/2000/svg" width="174" height="47" viewBox="0 0 174 47">
  <g id="logo" transform="translate(-91.858 -514.229)">
    <g id="Group_1" data-name="Group 1" transform="translate(91.858 514.229)">
      <path id="Path_1" data-name="Path 1" d="M695.361,609.568h-8.635a1.493,1.493,0,0,0,0,2.986h7.952a.7.7,0,0,1,.7.7v1.709h-7.494a3.147,3.147,0,0,0-3.147,3.147v3.084a3.147,3.147,0,0,0,3.147,3.147h7.477a3.147,3.147,0,0,0,3.147-3.147v-8.479a3.147,3.147,0,0,0-3.147-3.146m.017,11.086a.7.7,0,0,1-.7.7h-6.112a.7.7,0,0,1-.7-.7v-2.006a.7.7,0,0,1,.7-.7h6.812Z" transform="translate(-584.044 -593.49)" fill="#ff5000"/>
      <path id="Path_2" data-name="Path 2" d="M458.647,614.964h-1.84c0-.054.008-.106.008-.16v-2.088a3.147,3.147,0,0,0-3.147-3.147h-7.477a3.147,3.147,0,0,0-3.147,3.147V614.8a3.147,3.147,0,0,0,3.147,3.147h1.841l-.008,3.245a3.146,3.146,0,0,0,3.147,3.147h7.476a3.147,3.147,0,0,0,3.147-3.147V618.11a3.147,3.147,0,0,0-3.147-3.147m-12.473-.7v-1.005a.7.7,0,0,1,.7-.7h6.1a.7.7,0,0,1,.7.7v1.7h-6.811a.7.7,0,0,1-.7-.7m12.489,6.392a.7.7,0,0,1-.7.7H451.84a.7.7,0,0,1-.7-.7v-2.7h6.807a.7.7,0,0,1,.7.7v2Z" transform="translate(-383.232 -593.491)" fill="#ff5000"/>
      <path id="Path_3" data-name="Path 3" d="M915.232,614.964h-11.89v-1.709a.7.7,0,0,1,.7-.7h12.033a1.493,1.493,0,0,0,0-2.986H903.359a3.147,3.147,0,0,0-3.147,3.147V622.84a1.565,1.565,0,0,0,3.13,0v-4.89h4.438v4.89a1.565,1.565,0,0,0,3.13,0v-4.89h3.64a.7.7,0,0,1,.7.7v4.191a1.565,1.565,0,0,0,3.131,0v-4.73a3.146,3.146,0,0,0-3.147-3.147" transform="translate(-761.066 -593.489)" fill="#ff5000"/>
      <path id="Path_4" data-name="Path 4" d="M585.223,609.568h-9.647a1.538,1.538,0,0,0-1.551,1.346,1.494,1.494,0,0,0,1.486,1.64h2.845v2.265a1.565,1.565,0,0,0,3.13,0v-2.265h3.049a.7.7,0,0,1,.7.7v7.392a.7.7,0,0,1-.7.7h-6.108a.7.7,0,0,1-.7-.7v-1.315a1.565,1.565,0,1,0-3.131,0v1.854a3.147,3.147,0,0,0,3.147,3.147h7.477a3.147,3.147,0,0,0,3.147-3.147v-8.479a3.146,3.146,0,0,0-3.146-3.147" transform="translate(-492.103 -593.49)" fill="#ff5000"/>
      <path id="Path_5" data-name="Path 5" d="M801.915,624.341a3.147,3.147,0,0,0,3.147-3.147v-8.479a3.147,3.147,0,0,0-3.147-3.147h-7.477a3.148,3.148,0,0,0-3.147,3.147v1.02a1.565,1.565,0,0,0,3.13,0v-.478a.7.7,0,0,1,.7-.7h6.1a.7.7,0,0,1,.7.7v7.4a.7.7,0,0,1-.7.7h-6.108a.7.7,0,0,1-.7-.7v-1.31a1.565,1.565,0,0,0-3.13,0V621.2a3.147,3.147,0,0,0,3.147,3.147Z" transform="translate(-672.5 -593.49)" fill="#ff5000"/>
      <path id="Path_6" data-name="Path 6" d="M1050.65,622.84V612.715a3.147,3.147,0,0,0-3.147-3.146h-7.18a3.146,3.146,0,0,0-3.147,3.146V622.84a1.565,1.565,0,1,0,3.13,0v-9.58a.7.7,0,0,1,.7-.7h5.805a.7.7,0,0,1,.7.7v9.58a1.566,1.566,0,0,0,3.131,0" transform="translate(-876.65 -593.488)" fill="#ff5000"/>
      <path id="Path_7" data-name="Path 7" d="M160.488,585.388c-.053-.064-.107-.13-.163-.2a21.467,21.467,0,0,0-20.96-7.1.048.048,0,0,1-.054-.027.056.056,0,0,1,.01-.063l20.036-20.142h0c.381-.382.771-.808,1.192-1.3a1.854,1.854,0,0,0,.058-2.356,1.512,1.512,0,0,0-2.343,0c-.386.453-.737.839-1.073,1.182A18.317,18.317,0,0,1,130,554.414c-.033-.038-.064-.076-.1-.116l-.053-.066a1.552,1.552,0,0,0-2.213-.265,1.74,1.74,0,0,0-.6,1.194,1.782,1.782,0,0,0,.4,1.285l.074.09c.055.068.11.135.168.2a21.622,21.622,0,0,0,15.622,7.6q.382.014.762.013a20.964,20.964,0,0,0,4.564-.506.048.048,0,0,1,.054.027.055.055,0,0,1-.01.063l-20.021,20.126c-.381.382-.772.81-1.194,1.3a1.853,1.853,0,0,0-.058,2.355,1.511,1.511,0,0,0,2.343,0c.387-.454.738-.839,1.074-1.182a18.338,18.338,0,0,1,27.194.967c.032.036.062.074.092.107l.118.144a1.509,1.509,0,0,0,2.238.115,1.792,1.792,0,0,0,.107-2.4Z" transform="translate(-121.521 -547.461)" fill="#ff5000"/>
      <path id="Path_8" data-name="Path 8" d="M100.309,628.269a.053.053,0,0,0-.009-.085l-1.751-1.041a30.93,30.93,0,0,1-4.036-2.87,1.618,1.618,0,0,0-2.021-.09,1.586,1.586,0,0,0-.063,2.477c.867.729,1.768,1.414,2.692,2.048a.047.047,0,0,1,0,.073l-2.733,2.558a1.629,1.629,0,0,0-.182,2.22,1.585,1.585,0,0,0,2.3.139Z" transform="translate(-91.858 -605.561)" fill="#ff5000"/>
      <path id="Path_9" data-name="Path 9" d="M119.831,592.768a24.448,24.448,0,0,1-12.189-7.468,1.506,1.506,0,0,0-1.193-.513,1.536,1.536,0,0,0-1.147.63,1.958,1.958,0,0,0,.161,2.434,27.933,27.933,0,0,0,10.811,7.445.05.05,0,0,1,.031.038.056.056,0,0,1-.014.049L106.01,606.029q-.3.308-.581.622a1.947,1.947,0,0,0-.006,2.595,1.477,1.477,0,0,0,2.187-.05c.185-.2.372-.406.565-.605L122.9,593.335a.059.059,0,0,0,.013-.06.051.051,0,0,0-.045-.036,18.36,18.36,0,0,1-3.039-.471" transform="translate(-102.893 -573.771)" fill="#ff5000"/>
      <path id="Path_10" data-name="Path 10" d="M330.894,629.961l2.733-2.557a1.63,1.63,0,0,0,.181-2.221,1.584,1.584,0,0,0-2.3-.139l-5.8,5.429a.054.054,0,0,0,.009.085l1.751,1.041a30.946,30.946,0,0,1,4.036,2.87,1.619,1.619,0,0,0,2.021.09,1.586,1.586,0,0,0,.063-2.477c-.867-.729-1.767-1.414-2.691-2.048a.046.046,0,0,1-.006-.073" transform="translate(-286.092 -606.182)" fill="#ff5000"/>
      <path id="Path_11" data-name="Path 11" d="M258.3,599.558a.051.051,0,0,1-.03-.039.056.056,0,0,1,.014-.049l10.28-10.644c.2-.2.391-.412.581-.62a1.949,1.949,0,0,0,.007-2.6,1.477,1.477,0,0,0-2.187.05q-.277.307-.565.605l-14.727,15.249a.059.059,0,0,0-.013.06.051.051,0,0,0,.045.036,18.419,18.419,0,0,1,3.039.471,24.46,24.46,0,0,1,12.188,7.468,1.506,1.506,0,0,0,1.193.513,1.536,1.536,0,0,0,1.147-.63,1.956,1.956,0,0,0-.16-2.434,27.946,27.946,0,0,0-10.811-7.446" transform="translate(-224.45 -574.079)" fill="#ff5000"/>
      <path id="Path_12" data-name="Path 12" d="M157.383,738.69c-.215.2-.427.412-.646.641a1.584,1.584,0,1,0,2.288,2.191c.18-.188.351-.358.524-.519a13.4,13.4,0,0,1,18.815.547,1.586,1.586,0,0,0,2.3-2.184,16.58,16.58,0,0,0-23.276-.676" transform="translate(-146.241 -697.505)" fill="#ff5000"/>
      <path id="Path_13" data-name="Path 13" d="M207.872,773.206a10.675,10.675,0,0,0-10.71-.016,1.584,1.584,0,1,0,1.589,2.741,7.5,7.5,0,0,1,7.525.012,1.585,1.585,0,1,0,1.6-2.737" transform="translate(-180.06 -729.16)" fill="#ff5000"/>
      <path id="Path_14" data-name="Path 14" d="M169.071,537.8a16.472,16.472,0,0,0,11.29-4.442c.215-.2.426-.411.646-.64a1.584,1.584,0,1,0-2.287-2.192c-.18.188-.351.358-.524.519a13.4,13.4,0,0,1-18.815-.547,1.584,1.584,0,1,0-2.295,2.184,16.493,16.493,0,0,0,11.985,5.119" transform="translate(-146.538 -527.539)" fill="#ff5000"/>
      <path id="Path_15" data-name="Path 15" d="M197.517,517.182a10.677,10.677,0,0,0,10.711.017,1.584,1.584,0,0,0-1.589-2.741,7.5,7.5,0,0,1-7.525-.012,1.585,1.585,0,0,0-1.6,2.736" transform="translate(-180.363 -514.229)" fill="#ff5000"/>
    </g>
  </g>
</svg>
